<svg xmlns="http://www.w3.org/2000/svg" xmlns:xlink="http://www.w3.org/1999/xlink" width="500" zoomAndPan="magnify" viewBox="0 0 375 374.999991" height="500" preserveAspectRatio="xMidYMid meet" version="1.0"><defs><g/></defs><g fill="#00bf63" fill-opacity="1"><g transform="translate(66.130297, 227.945815)"><g><path d="M 12.59375 -0.296875 C 14.457031 -0.765625 15.753906 -1.695312 16.484375 -3.09375 C 17.222656 -4.5 17.691406 -6.097656 17.890625 -7.890625 C 18.085938 -9.691406 18.222656 -11.328125 18.296875 -12.796875 C 18.429688 -14.390625 18.863281 -15.785156 19.59375 -16.984375 C 20.320312 -18.191406 21.21875 -18.828125 22.28125 -18.890625 C 23.351562 -18.960938 24.390625 -18.03125 25.390625 -16.09375 C 26.453125 -14.03125 27.648438 -12.046875 28.984375 -10.140625 C 30.316406 -8.242188 31.816406 -6.5 33.484375 -4.90625 C 36.085938 -2.4375 38.320312 -1.148438 40.1875 -1.046875 C 42.050781 -0.953125 43.46875 -1.648438 44.4375 -3.140625 C 45.40625 -4.640625 45.820312 -6.554688 45.6875 -8.890625 C 45.550781 -11.222656 44.785156 -13.59375 43.390625 -16 C 43.054688 -16.664062 42.503906 -17.476562 41.734375 -18.4375 C 40.972656 -19.40625 40.238281 -20.40625 39.53125 -21.4375 C 38.832031 -22.476562 38.382812 -23.460938 38.1875 -24.390625 C 37.988281 -25.328125 38.222656 -26.09375 38.890625 -26.6875 C 40.421875 -27.957031 41.753906 -29.375 42.890625 -30.9375 C 44.023438 -32.507812 44.988281 -34.160156 45.78125 -35.890625 C 47.976562 -40.691406 48.726562 -44.875 48.03125 -48.4375 C 47.332031 -52 45.648438 -54.960938 42.984375 -57.328125 C 40.316406 -59.691406 37.050781 -61.488281 33.1875 -62.71875 C 29.320312 -63.957031 25.273438 -64.625 21.046875 -64.71875 C 16.816406 -64.820312 12.800781 -64.375 9 -63.375 C 8.664062 -63.3125 8.628906 -63.28125 8.890625 -63.28125 C 6.890625 -62.945312 5.457031 -61.929688 4.59375 -60.234375 C 3.726562 -58.535156 3.242188 -56.5 3.140625 -54.125 C 3.046875 -51.757812 3.082031 -49.425781 3.25 -47.125 C 3.414062 -44.832031 3.53125 -42.921875 3.59375 -41.390625 C 3.800781 -35.453125 3.835938 -29.519531 3.703125 -23.59375 C 3.566406 -17.664062 3.734375 -11.765625 4.203125 -5.890625 C 4.335938 -3.429688 5.203125 -1.75 6.796875 -0.84375 C 8.398438 0.0507812 10.332031 0.234375 12.59375 -0.296875 Z M 19.390625 -27.09375 C 19.460938 -27.894531 19.5 -29.191406 19.5 -30.984375 C 19.5 -32.785156 19.5625 -34.648438 19.6875 -36.578125 C 19.820312 -38.515625 20.101562 -40.179688 20.53125 -41.578125 C 20.96875 -42.984375 21.625 -43.71875 22.5 -43.78125 C 24.03125 -43.914062 25.726562 -44.066406 27.59375 -44.234375 C 29.457031 -44.398438 31.023438 -43.953125 32.296875 -42.890625 C 33.554688 -41.816406 34.035156 -40.628906 33.734375 -39.328125 C 33.441406 -38.035156 32.675781 -36.722656 31.4375 -35.390625 C 30.207031 -34.054688 28.773438 -32.804688 27.140625 -31.640625 C 25.503906 -30.472656 23.953125 -29.488281 22.484375 -28.6875 C 21.023438 -27.882812 19.992188 -27.351562 19.390625 -27.09375 Z M 19.390625 -27.09375 "/></g></g></g><g fill="#00bf63" fill-opacity="1"><g transform="translate(113.117286, 227.945815)"><g><path d="M 5.890625 -2.703125 C 6.828125 -1.566406 8.425781 -0.796875 10.6875 -0.390625 C 12.957031 0.00390625 15.523438 0.101562 18.390625 -0.09375 C 21.253906 -0.300781 24.117188 -0.738281 26.984375 -1.40625 C 29.859375 -2.070312 32.375 -2.882812 34.53125 -3.84375 C 36.695312 -4.8125 38.179688 -5.828125 38.984375 -6.890625 C 40.847656 -9.429688 41.832031 -11.5 41.9375 -13.09375 C 42.039062 -14.695312 41.507812 -15.914062 40.34375 -16.75 C 39.175781 -17.582031 37.640625 -18.144531 35.734375 -18.4375 C 33.835938 -18.738281 31.789062 -18.875 29.59375 -18.84375 C 27.394531 -18.8125 25.3125 -18.726562 23.34375 -18.59375 C 21.375 -18.457031 19.757812 -18.359375 18.5 -18.296875 C 17.5 -18.429688 16.894531 -18.863281 16.6875 -19.59375 C 16.488281 -20.320312 16.539062 -21.1875 16.84375 -22.1875 C 17.144531 -23.1875 17.578125 -24.132812 18.140625 -25.03125 C 18.710938 -25.9375 19.265625 -26.585938 19.796875 -26.984375 C 21.265625 -28.191406 22.929688 -28.992188 24.796875 -29.390625 C 26.660156 -29.785156 28.507812 -30.203125 30.34375 -30.640625 C 32.175781 -31.078125 33.757812 -31.960938 35.09375 -33.296875 C 36.820312 -35.023438 37.566406 -36.335938 37.328125 -37.234375 C 37.097656 -38.140625 36.234375 -38.789062 34.734375 -39.1875 C 33.234375 -39.582031 31.484375 -39.878906 29.484375 -40.078125 C 27.484375 -40.285156 25.566406 -40.554688 23.734375 -40.890625 C 21.910156 -41.222656 20.53125 -41.753906 19.59375 -42.484375 C 18.65625 -43.222656 18.519531 -44.359375 19.1875 -45.890625 C 19.789062 -47.148438 20.941406 -48.097656 22.640625 -48.734375 C 24.335938 -49.367188 26.234375 -49.898438 28.328125 -50.328125 C 30.429688 -50.765625 32.414062 -51.28125 34.28125 -51.875 C 36.15625 -52.476562 37.59375 -53.363281 38.59375 -54.53125 C 39.59375 -55.695312 39.789062 -57.378906 39.1875 -59.578125 C 38.914062 -60.710938 38.046875 -61.5625 36.578125 -62.125 C 35.117188 -62.695312 33.351562 -63.082031 31.28125 -63.28125 C 29.21875 -63.476562 27.101562 -63.5625 24.9375 -63.53125 C 22.769531 -63.5 20.820312 -63.414062 19.09375 -63.28125 C 17.363281 -63.144531 16.097656 -63.046875 15.296875 -62.984375 C 13.160156 -62.910156 11.257812 -62.722656 9.59375 -62.421875 C 7.925781 -62.128906 6.625 -61.414062 5.6875 -60.28125 C 4.757812 -59.144531 4.296875 -57.34375 4.296875 -54.875 C 4.234375 -51.144531 4.148438 -47.414062 4.046875 -43.6875 C 3.953125 -39.957031 3.867188 -36.222656 3.796875 -32.484375 C 3.796875 -30.753906 3.675781 -28.519531 3.4375 -25.78125 C 3.207031 -23.050781 3.0625 -20.203125 3 -17.234375 C 2.9375 -14.273438 3.101562 -11.492188 3.5 -8.890625 C 3.894531 -6.296875 4.691406 -4.234375 5.890625 -2.703125 Z M 5.890625 -2.703125 "/></g></g></g><g fill="#00bf63" fill-opacity="1"><g transform="translate(153.805996, 227.945815)"><g><path d="M 23 -0.203125 C 26.257812 0.265625 28.90625 0.015625 30.9375 -0.953125 C 32.96875 -1.921875 34.566406 -3.351562 35.734375 -5.25 C 36.898438 -7.144531 37.78125 -9.304688 38.375 -11.734375 C 38.976562 -14.171875 39.515625 -16.59375 39.984375 -19 C 40.921875 -24.125 42.085938 -29.21875 43.484375 -34.28125 C 44.878906 -39.351562 46.445312 -44.390625 48.1875 -49.390625 C 48.445312 -50.179688 48.773438 -51.160156 49.171875 -52.328125 C 49.578125 -53.492188 49.847656 -54.675781 49.984375 -55.875 C 50.117188 -57.082031 50 -58.148438 49.625 -59.078125 C 49.257812 -60.015625 48.445312 -60.679688 47.1875 -61.078125 C 45.914062 -61.484375 44.460938 -61.535156 42.828125 -61.234375 C 41.203125 -60.929688 39.851562 -60.3125 38.78125 -59.375 C 37.320312 -58.113281 36.007812 -56.265625 34.84375 -53.828125 C 33.675781 -51.398438 32.65625 -48.734375 31.78125 -45.828125 C 30.914062 -42.929688 30.148438 -40.132812 29.484375 -37.4375 C 28.816406 -34.738281 28.253906 -32.457031 27.796875 -30.59375 C 26.523438 -30.59375 25.421875 -31.320312 24.484375 -32.78125 C 23.554688 -34.25 22.707031 -36.148438 21.9375 -38.484375 C 21.175781 -40.816406 20.425781 -43.300781 19.6875 -45.9375 C 18.957031 -48.570312 18.175781 -51.050781 17.34375 -53.375 C 16.507812 -55.707031 15.539062 -57.625 14.4375 -59.125 C 13.34375 -60.625 12.0625 -61.441406 10.59375 -61.578125 C 9.125 -61.710938 7.390625 -60.847656 5.390625 -58.984375 C 4.066406 -57.710938 3.300781 -56.023438 3.09375 -53.921875 C 2.894531 -51.828125 3.078125 -49.5 3.640625 -46.9375 C 4.210938 -44.375 4.945312 -41.820312 5.84375 -39.28125 C 6.75 -36.75 7.648438 -34.398438 8.546875 -32.234375 C 9.441406 -30.066406 10.125 -28.351562 10.59375 -27.09375 C 11 -25.957031 11.484375 -24.335938 12.046875 -22.234375 C 12.609375 -20.140625 13.238281 -17.875 13.9375 -15.4375 C 14.644531 -13.007812 15.429688 -10.675781 16.296875 -8.4375 C 17.160156 -6.207031 18.160156 -4.328125 19.296875 -2.796875 C 20.429688 -1.265625 21.664062 -0.398438 23 -0.203125 Z M 23 -0.203125 "/></g></g></g><g fill="#00bf63" fill-opacity="1"><g transform="translate(199.593312, 227.945815)"><g><path d="M 4.796875 -2.5 C 5.265625 -1.363281 6.046875 -0.628906 7.140625 -0.296875 C 8.242188 0.0351562 9.445312 0.0859375 10.75 -0.140625 C 12.050781 -0.378906 13.234375 -0.816406 14.296875 -1.453125 C 15.359375 -2.085938 16.09375 -2.800781 16.5 -3.59375 C 17.5 -5.59375 18.113281 -7.742188 18.34375 -10.046875 C 18.570312 -12.347656 18.703125 -14.695312 18.734375 -17.09375 C 18.773438 -19.488281 18.863281 -21.722656 19 -23.796875 C 19.0625 -24.859375 19.273438 -26.488281 19.640625 -28.6875 C 20.003906 -30.882812 20.367188 -33.414062 20.734375 -36.28125 C 21.109375 -39.15625 21.410156 -42.085938 21.640625 -45.078125 C 21.878906 -48.078125 21.914062 -50.910156 21.75 -53.578125 C 21.582031 -56.242188 21.113281 -58.492188 20.34375 -60.328125 C 19.570312 -62.160156 18.390625 -63.28125 16.796875 -63.6875 C 13.265625 -64.675781 10.515625 -64.703125 8.546875 -63.765625 C 6.578125 -62.835938 5.191406 -61.289062 4.390625 -59.125 C 3.597656 -56.957031 3.164062 -54.488281 3.09375 -51.71875 C 3.03125 -48.957031 3.097656 -46.191406 3.296875 -43.421875 C 3.492188 -40.660156 3.628906 -38.25 3.703125 -36.1875 C 3.765625 -33.71875 3.710938 -30.96875 3.546875 -27.9375 C 3.378906 -24.90625 3.242188 -21.804688 3.140625 -18.640625 C 3.046875 -15.472656 3.097656 -12.488281 3.296875 -9.6875 C 3.492188 -6.894531 3.992188 -4.5 4.796875 -2.5 Z M 4.796875 -2.5 "/></g></g></g><g fill="#00bf63" fill-opacity="1"><g transform="translate(218.188049, 227.945815)"><g><path d="M 23 -0.203125 C 26.257812 0.265625 28.90625 0.015625 30.9375 -0.953125 C 32.96875 -1.921875 34.566406 -3.351562 35.734375 -5.25 C 36.898438 -7.144531 37.78125 -9.304688 38.375 -11.734375 C 38.976562 -14.171875 39.515625 -16.59375 39.984375 -19 C 40.921875 -24.125 42.085938 -29.21875 43.484375 -34.28125 C 44.878906 -39.351562 46.445312 -44.390625 48.1875 -49.390625 C 48.445312 -50.179688 48.773438 -51.160156 49.171875 -52.328125 C 49.578125 -53.492188 49.847656 -54.675781 49.984375 -55.875 C 50.117188 -57.082031 50 -58.148438 49.625 -59.078125 C 49.257812 -60.015625 48.445312 -60.679688 47.1875 -61.078125 C 45.914062 -61.484375 44.460938 -61.535156 42.828125 -61.234375 C 41.203125 -60.929688 39.851562 -60.3125 38.78125 -59.375 C 37.320312 -58.113281 36.007812 -56.265625 34.84375 -53.828125 C 33.675781 -51.398438 32.65625 -48.734375 31.78125 -45.828125 C 30.914062 -42.929688 30.148438 -40.132812 29.484375 -37.4375 C 28.816406 -34.738281 28.253906 -32.457031 27.796875 -30.59375 C 26.523438 -30.59375 25.421875 -31.320312 24.484375 -32.78125 C 23.554688 -34.25 22.707031 -36.148438 21.9375 -38.484375 C 21.175781 -40.816406 20.425781 -43.300781 19.6875 -45.9375 C 18.957031 -48.570312 18.175781 -51.050781 17.34375 -53.375 C 16.507812 -55.707031 15.539062 -57.625 14.4375 -59.125 C 13.34375 -60.625 12.0625 -61.441406 10.59375 -61.578125 C 9.125 -61.710938 7.390625 -60.847656 5.390625 -58.984375 C 4.066406 -57.710938 3.300781 -56.023438 3.09375 -53.921875 C 2.894531 -51.828125 3.078125 -49.5 3.640625 -46.9375 C 4.210938 -44.375 4.945312 -41.820312 5.84375 -39.28125 C 6.75 -36.75 7.648438 -34.398438 8.546875 -32.234375 C 9.441406 -30.066406 10.125 -28.351562 10.59375 -27.09375 C 11 -25.957031 11.484375 -24.335938 12.046875 -22.234375 C 12.609375 -20.140625 13.238281 -17.875 13.9375 -15.4375 C 14.644531 -13.007812 15.429688 -10.675781 16.296875 -8.4375 C 17.160156 -6.207031 18.160156 -4.328125 19.296875 -2.796875 C 20.429688 -1.265625 21.664062 -0.398438 23 -0.203125 Z M 23 -0.203125 "/></g></g></g><g fill="#00bf63" fill-opacity="1"><g transform="translate(263.975377, 227.945815)"><g><path d="M 5.890625 -2.703125 C 6.828125 -1.566406 8.425781 -0.796875 10.6875 -0.390625 C 12.957031 0.00390625 15.523438 0.101562 18.390625 -0.09375 C 21.253906 -0.300781 24.117188 -0.738281 26.984375 -1.40625 C 29.859375 -2.070312 32.375 -2.882812 34.53125 -3.84375 C 36.695312 -4.8125 38.179688 -5.828125 38.984375 -6.890625 C 40.847656 -9.429688 41.832031 -11.5 41.9375 -13.09375 C 42.039062 -14.695312 41.507812 -15.914062 40.34375 -16.75 C 39.175781 -17.582031 37.640625 -18.144531 35.734375 -18.4375 C 33.835938 -18.738281 31.789062 -18.875 29.59375 -18.84375 C 27.394531 -18.8125 25.3125 -18.726562 23.34375 -18.59375 C 21.375 -18.457031 19.757812 -18.359375 18.5 -18.296875 C 17.5 -18.429688 16.894531 -18.863281 16.6875 -19.59375 C 16.488281 -20.320312 16.539062 -21.1875 16.84375 -22.1875 C 17.144531 -23.1875 17.578125 -24.132812 18.140625 -25.03125 C 18.710938 -25.9375 19.265625 -26.585938 19.796875 -26.984375 C 21.265625 -28.191406 22.929688 -28.992188 24.796875 -29.390625 C 26.660156 -29.785156 28.507812 -30.203125 30.34375 -30.640625 C 32.175781 -31.078125 33.757812 -31.960938 35.09375 -33.296875 C 36.820312 -35.023438 37.566406 -36.335938 37.328125 -37.234375 C 37.097656 -38.140625 36.234375 -38.789062 34.734375 -39.1875 C 33.234375 -39.582031 31.484375 -39.878906 29.484375 -40.078125 C 27.484375 -40.285156 25.566406 -40.554688 23.734375 -40.890625 C 21.910156 -41.222656 20.53125 -41.753906 19.59375 -42.484375 C 18.65625 -43.222656 18.519531 -44.359375 19.1875 -45.890625 C 19.789062 -47.148438 20.941406 -48.097656 22.640625 -48.734375 C 24.335938 -49.367188 26.234375 -49.898438 28.328125 -50.328125 C 30.429688 -50.765625 32.414062 -51.28125 34.28125 -51.875 C 36.15625 -52.476562 37.59375 -53.363281 38.59375 -54.53125 C 39.59375 -55.695312 39.789062 -57.378906 39.1875 -59.578125 C 38.914062 -60.710938 38.046875 -61.5625 36.578125 -62.125 C 35.117188 -62.695312 33.351562 -63.082031 31.28125 -63.28125 C 29.21875 -63.476562 27.101562 -63.5625 24.9375 -63.53125 C 22.769531 -63.5 20.820312 -63.414062 19.09375 -63.28125 C 17.363281 -63.144531 16.097656 -63.046875 15.296875 -62.984375 C 13.160156 -62.910156 11.257812 -62.722656 9.59375 -62.421875 C 7.925781 -62.128906 6.625 -61.414062 5.6875 -60.28125 C 4.757812 -59.144531 4.296875 -57.34375 4.296875 -54.875 C 4.234375 -51.144531 4.148438 -47.414062 4.046875 -43.6875 C 3.953125 -39.957031 3.867188 -36.222656 3.796875 -32.484375 C 3.796875 -30.753906 3.675781 -28.519531 3.4375 -25.78125 C 3.207031 -23.050781 3.0625 -20.203125 3 -17.234375 C 2.9375 -14.273438 3.101562 -11.492188 3.5 -8.890625 C 3.894531 -6.296875 4.691406 -4.234375 5.890625 -2.703125 Z M 5.890625 -2.703125 "/></g></g></g></svg>
